<svg width="366" height="76" viewBox="0 0 366 76" fill="none" xmlns="http://www.w3.org/2000/svg">
<path d="M232.904 7.70777H248.269V30.2008L267.356 7.70777H285.572L264.584 31.5459L286.285 63.1461H267.831L253.892 42.5555L248.269 48.8113V63.1461H232.904V7.70777Z" fill="#46A0B4"/>
<path d="M298.718 21.6467L289.372 23.7839L286.443 11.9045L302.677 7.31192H313.845V63.1461H298.718V21.6467Z" fill="#46A0B4"/>
<path d="M321.844 51.5837L342.594 35.744C345.18 33.7385 347.016 31.996 348.098 30.5165C349.18 29.0385 349.721 27.4543 349.721 25.764C349.721 24.0215 349.154 22.6496 348.019 21.6468C346.883 20.6441 345.392 20.1405 343.544 20.1405C341.696 20.1405 339.941 20.7092 338.278 21.8449C336.614 22.9806 334.699 24.7882 332.535 27.269L322.161 18.637C323.637 16.736 325.142 15.046 326.675 13.5678C328.206 12.0912 329.855 10.8494 331.624 9.84524C333.394 8.84392 335.347 8.07727 337.486 7.54971C339.624 7.02216 342.039 6.75628 344.733 6.75628C347.741 6.75628 350.499 7.19176 353.009 8.06311C355.515 8.93427 357.668 10.1366 359.462 11.667C361.257 13.1988 362.656 15.0601 363.66 17.251C364.663 19.4418 365.165 21.8321 365.165 24.4176V24.5761C365.165 26.7939 364.888 28.774 364.334 30.5165C363.779 32.259 362.947 33.8826 361.839 35.3876C360.73 36.8912 359.383 38.3309 357.799 39.703C356.216 41.0778 354.395 42.5019 352.335 43.9801L342.832 50.6333H365.72V63.1464H321.844V51.5837Z" fill="#46A0B4"/>
<path d="M18.2773 63.2722C20.1208 63.2722 21.8603 63.0665 23.4961 62.658L24.1904 62.4705C25.9059 61.9713 27.3952 61.2527 28.668 60.321L28.9189 60.1316C30.1508 59.1803 31.1357 58.0006 31.8691 56.5867L32.0117 56.3005H32.0127C32.7523 54.7751 33.1348 52.9545 33.1348 50.822V50.6638C33.1348 48.9728 32.8029 47.5639 32.1709 46.4138L32.041 46.1873V46.1863C31.2961 44.9455 30.3366 43.8911 29.167 43.0203C28.1212 42.2448 26.9662 41.5719 25.7002 41.0056L25.1514 40.7703C24.0162 40.3017 22.8816 39.877 21.748 39.4968L20.6143 39.1316C19.6987 38.8535 18.8056 38.5681 17.9336 38.2742L17.0684 37.9773C16.0541 37.625 15.138 37.2493 14.3184 36.8494L13.9727 36.6755C13.0556 36.2043 12.2883 35.6627 11.6982 35.0427C11.0555 34.3708 10.7198 33.5614 10.7197 32.6462V32.4871C10.7198 31.1418 11.2703 30.0112 12.3115 29.1287L12.5264 28.9558C13.7111 28.0466 15.313 27.6326 17.248 27.6326C18.8515 27.6326 20.5645 27.9196 22.3828 28.4812L23.1689 28.739C25.0713 29.3976 26.9466 30.2656 28.7969 31.3386L31.9648 25.6365C30.0758 24.4271 28.0144 23.4458 25.7754 22.6941L25.2832 22.5339C22.6508 21.6989 20.0529 21.283 17.4854 21.283C15.7391 21.283 14.0885 21.4996 12.5293 21.9265L11.8672 22.1218C10.2277 22.6436 8.80062 23.3834 7.57812 24.3367L7.33594 24.531C6.14386 25.5101 5.19354 26.6845 4.4834 28.0583L4.34473 28.3357C3.62784 29.8169 3.2627 31.4797 3.2627 33.3406V33.4988C3.2627 35.2938 3.59596 36.7803 4.23047 37.9841L4.36133 38.2214C5.01569 39.3537 5.82874 40.3194 6.80371 41.1238L7.23145 41.4587C8.26935 42.2303 9.4267 42.8791 10.707 43.4031L11.2637 43.6208H11.2646C12.8026 44.194 14.3281 44.6882 15.8398 45.1042L15.8486 45.1072L15.8564 45.1091C17.0742 45.4781 18.2544 45.8488 19.3945 46.2195L19.3936 46.2205C20.4078 46.5488 21.3249 46.9004 22.1436 47.2761L22.4883 47.4382C23.3046 47.8332 23.9923 48.3061 24.5361 48.8611L24.7607 49.1033L24.7617 49.1042C25.3705 49.8075 25.6768 50.649 25.6768 51.5935V51.7517C25.6767 53.2431 25.0819 54.4708 23.9336 55.3923L23.6963 55.572V55.573L23.4482 55.741C22.184 56.5516 20.5174 56.9226 18.5146 56.9226C16.4 56.9226 14.2148 56.524 11.9639 55.7371L11.5127 55.575C9.29388 54.7539 7.11943 53.5799 4.9873 52.0603L1.43457 57.4675C3.71737 59.196 6.16824 60.5408 8.78516 61.5066L9.34766 61.7078C12.3714 62.7521 15.3479 63.2722 18.2773 63.2722Z" fill="#37768D" stroke="#37768D" stroke-width="1.33333"/>
<path d="M47.152 62.479V21.9966H38.8229V62.479H47.152Z" fill="#37768D" stroke="#37768D" stroke-width="1.33333"/>
<path d="M63.3086 62.4792V39.6785C63.3087 36.3065 64.1515 33.5757 65.9189 31.5759V31.575C67.6859 29.5733 70.0327 28.5828 72.8848 28.5828C75.5454 28.5828 77.7119 29.3994 79.3086 31.0789L79.6211 31.4265C81.2317 33.3281 81.9863 36.0071 81.9863 39.363V62.4792H90.3164V39.5994C90.3165 36.3435 91.0663 33.7181 92.6523 31.8123L92.9805 31.4412C94.7729 29.5293 97.0962 28.5828 99.8906 28.5828C102.551 28.5828 104.719 29.3992 106.316 31.0789L106.628 31.4265H106.629C108.239 33.3296 108.994 36.0373 108.994 39.4431V62.4792H117.322V36.4568C117.322 31.6024 116.131 27.9197 113.835 25.3191L113.609 25.071C111.168 22.4635 107.76 21.1258 103.297 21.1257C100.409 21.1257 97.9272 21.7029 95.8291 22.8367L95.415 23.071C93.1923 24.3825 91.2563 26.1221 89.6133 28.2937L88.9629 29.1541L88.4844 28.1873C87.4966 26.189 86.1052 24.5627 84.3047 23.3025L83.9395 23.0554V23.0544C81.9912 21.7799 79.5842 21.1258 76.6865 21.1257C75.1643 21.1257 73.7958 21.3189 72.5791 21.6951H72.5801C71.5015 22.0301 70.5264 22.4689 69.6514 23.0115L69.2822 23.2498L69.2812 23.2507C68.4175 23.8337 67.6459 24.4713 66.9629 25.1658L66.6748 25.4675C65.9049 26.2994 65.1844 27.1844 64.5176 28.1189L63.3086 29.8132V21.9968H54.9805V62.4792H63.3086Z" fill="#37768D" stroke="#37768D" stroke-width="1.33333"/>
<path d="M132.607 75.152V54.6637L133.805 56.2506C135.229 58.1365 137.041 59.8024 139.247 61.2428L139.247 61.2438C141.377 62.6331 144.088 63.3521 147.415 63.3522C149.654 63.3522 151.839 62.9496 153.97 62.1422L154.396 61.9752C156.512 61.1169 158.407 59.8795 160.081 58.2574L160.413 57.9274C162.051 56.2613 163.387 54.2288 164.414 51.8229L164.614 51.3365C165.657 48.7351 166.187 45.7345 166.187 42.318V42.1598C166.187 38.9583 165.711 36.1218 164.772 33.6373L164.578 33.1451C163.566 30.6877 162.257 28.6056 160.657 26.8883L160.333 26.5494C158.688 24.8757 156.833 23.5861 154.769 22.6774L154.354 22.5006C152.115 21.5827 149.803 21.1256 147.415 21.1256C144.349 21.1257 141.8 21.766 139.737 23.0133L139.331 23.2711C137.137 24.7296 135.302 26.5314 133.823 28.6783L132.607 30.443V21.9967H124.279V75.152H132.607ZM145.232 56.3688C143.613 56.3688 142.065 56.0746 140.59 55.486L140.296 55.3649C138.736 54.6958 137.369 53.747 136.198 52.5192C135.17 51.4441 134.329 50.1693 133.675 48.7057L133.406 48.067C132.71 46.3178 132.37 44.3986 132.37 42.318V42.1598C132.37 40.2105 132.669 38.4114 133.281 36.7711L133.408 36.4449C134.095 34.7406 135.022 33.2542 136.192 32.0026V32.0035C137.29 30.8269 138.562 29.9049 140.005 29.2418L140.296 29.1129C141.859 28.4431 143.505 28.1081 145.232 28.108C146.849 28.108 148.388 28.4028 149.842 28.9928L150.132 29.1139V29.1149C151.571 29.7432 152.841 30.618 153.938 31.735L154.155 31.9615L154.156 31.9625C155.303 33.1951 156.202 34.6842 156.863 36.4176C157.531 38.1651 157.858 40.0836 157.858 42.1598V42.318C157.858 44.3126 157.57 46.1455 156.984 47.8092L156.863 48.1393C156.243 49.764 155.413 51.1655 154.363 52.3287L154.15 52.5582C153.076 53.6854 151.83 54.5761 150.417 55.234L150.132 55.3629L149.842 55.485C148.388 56.075 146.849 56.3688 145.232 56.3688Z" fill="#37768D" stroke="#37768D" stroke-width="1.33333"/>
<path d="M180.285 62.479V5.99854H171.956V62.479H180.285Z" fill="#37768D" stroke="#37768D" stroke-width="1.33333"/>
<path d="M206.611 63.4299C210.382 63.4299 213.587 62.7321 216.246 61.3665V61.3674C218.746 60.0802 220.921 58.3981 222.781 56.3176L218.106 52.1702C216.519 53.64 214.898 54.7853 213.237 55.5901C211.386 56.4869 209.223 56.924 206.77 56.9241C203.718 56.9241 201.059 56.0837 198.825 54.3879L198.383 54.0374C196.042 52.0903 194.619 49.3029 194.072 45.7444L193.954 44.9768H224.856C224.859 44.9458 224.862 44.9149 224.865 44.884L224.913 44.22V44.218C224.939 43.7828 224.953 43.36 224.953 42.9504C224.953 40.1898 224.588 37.5588 223.865 35.0549L223.715 34.5559C222.944 32.0769 221.828 29.8881 220.368 27.9856L220.071 27.6086C218.573 25.7551 216.715 24.2538 214.492 23.1057L214.042 22.8811C211.64 21.719 208.825 21.1252 205.582 21.1252C202.841 21.1253 200.341 21.6095 198.073 22.5696L197.622 22.7678C195.369 23.7984 193.403 25.1849 191.715 26.9309L191.382 27.2844C189.73 29.0794 188.423 31.1583 187.464 33.5237L187.276 34.0012C186.304 36.5614 185.815 39.3055 185.815 42.2395V42.3977C185.815 45.3442 186.29 48.0389 187.232 50.4856L187.427 50.9709V50.9719C188.437 53.4008 189.79 55.4921 191.489 57.2551L191.834 57.6038H191.835C193.579 59.3254 195.617 60.6911 197.954 61.6985L198.425 61.8948C200.954 62.9169 203.681 63.4299 206.611 63.4299ZM193.99 39.2229C194.4 36.0462 195.501 33.3947 197.319 31.301L197.692 30.8899C199.752 28.7163 202.374 27.634 205.503 27.634C207.064 27.634 208.49 27.902 209.767 28.4524L210.021 28.5667H210.022C211.173 29.1074 212.19 29.8092 213.069 30.6741L213.437 31.0549L213.438 31.0559C214.277 31.9698 214.958 33.0272 215.488 34.2258L215.706 34.7483C216.256 36.154 216.614 37.6517 216.778 39.2395L216.854 39.9749H193.893L193.99 39.2229Z" fill="#37768D" stroke="#37768D" stroke-width="1.33333"/>
<path d="M38.1559 8.32959C38.1559 3.91131 41.7376 0.32959 46.1559 0.32959H52.1559V6.32959C52.1559 10.7479 48.5742 14.3296 44.1559 14.3296H38.1559V8.32959Z" fill="#46A0B4"/>
<path d="M38.1559 8.32959C38.1559 3.91131 41.7376 0.32959 46.1559 0.32959H52.1559L38.1559 14.3296V8.32959Z" fill="#37768D"/>
<path fill-rule="evenodd" clip-rule="evenodd" d="M44.2235 8.26191L44.2235 0.564532C44.8423 0.411042 45.4896 0.32959 46.1559 0.32959H52.1559L44.2235 8.26191Z" fill="#7BA5B4"/>
<path fill-rule="evenodd" clip-rule="evenodd" d="M52.1559 6.33202C52.1557 6.99745 52.0742 7.64389 51.9209 8.26196L44.2235 8.26195L52.1559 0.32959V6.32959C52.1559 6.3304 52.1559 6.33121 52.1559 6.33202Z" fill="#C2E0E6"/>
</svg>
