<svg xmlns="http://www.w3.org/2000/svg" id="Layer_1" viewBox="0 0 287.8 90.1"><defs><style>      .st0 {        fill: none;      }      .st1 {        fill: #2c3942;      }      .st2 {        fill: #fff;        font-family: Montserrat-Black, Montserrat;        font-size: 60px;        font-weight: 800;      }      .st3 {        fill: #dbd9d9;      }      .st4 {        fill: #8a181a;      }      .st5 {        fill: #621012;      }      .st6 {        fill: #abaaaa;      }      .st7 {        fill: #a72c23;      }      .st8 {        fill: #8c8484;      }    </style></defs><g><path class="st1" d="M76.5,41.7h-12.3v-11h38.8v11h-12.3v31h-14.2v-31Z"></path><path class="st1" d="M141.5,62v10.7h-34.9V30.7h34.1v10.7h-20.2v4.9h17.8v10.2h-17.8v5.5h21Z"></path><path class="st1" d="M175.6,65.4h-16l-2.8,7.3h-14.4l18.4-42h13.9l18.4,42h-14.6l-2.8-7.3ZM171.7,55.2l-4.1-10.6-4.1,10.6h8.2Z"></path><path class="st1" d="M201.4,70.9c-3.6-1.9-6.4-4.5-8.4-7.8-2-3.3-3-7.1-3-11.4s1-8,3-11.4c2-3.3,4.8-5.9,8.4-7.8,3.6-1.9,7.6-2.8,12-2.8s7.7.7,10.9,2.2c3.2,1.4,5.8,3.5,7.9,6.2l-8.9,8c-2.6-3.3-5.7-4.9-9.2-4.9s-5.3,1-7.1,2.9c-1.8,1.9-2.7,4.5-2.7,7.6s.9,5.8,2.7,7.6c1.8,1.9,4.2,2.9,7.1,2.9s6.6-1.6,9.2-4.9l8.9,8c-2.1,2.7-4.7,4.8-7.9,6.2-3.2,1.4-6.8,2.2-10.9,2.2s-8.4-.9-12-2.8Z"></path><path class="st1" d="M277.7,30.7v42h-14.2v-15.5h-13.1v15.5h-14.2V30.7h14.2v14.9h13.1v-14.9h14.2Z"></path></g><g><polygon class="st0" points="32.1 41.5 28.8 49.7 32.2 49.7 38.2 49.7 41.6 41.5 38.8 41.5 32.1 41.5"></polygon><polygon class="st5" points="30.6 18.5 17.7 49.7 28.8 49.7 41.6 18.5 30.6 18.5"></polygon><polygon class="st4" points="8.3 72.7 19.3 72.7 24.4 60.3 13.3 60.3 8.3 72.7"></polygon><polygon class="st5" points="49.2 49.7 44.8 60.3 63 60.3 63 49.7 49.2 49.7"></polygon><polygon class="st4" points="7.3 49.7 7.3 60.3 33.8 60.3 38.2 49.7 7.3 49.7"></polygon><polygon class="st7" points="51 18.5 45.9 30.8 57 30.8 62.1 18.5 51 18.5"></polygon><polygon class="st5" points="28.7 72.7 39.8 72.7 52.6 41.5 41.6 41.5 28.7 72.7"></polygon><polygon class="st5" points="7.3 41.5 21.1 41.5 25.5 30.8 7.3 30.8 7.3 41.5"></polygon><polygon class="st7" points="36.5 30.8 32.1 41.5 63 41.5 63 30.8 36.5 30.8"></polygon></g><text class="st2" transform="translate(532 487)"><tspan x="0" y="0">TEACH</tspan></text><g><polygon class="st0" points="500.2 455.8 496.8 464 500.3 464 506.3 464 509.6 455.8 506.9 455.8 500.2 455.8"></polygon><polygon class="st6" points="498.6 432.8 485.8 464 496.8 464 509.7 432.8 498.6 432.8"></polygon><polygon class="st8" points="476.3 487 487.4 487 492.5 474.7 481.4 474.7 476.3 487"></polygon><polygon class="st6" points="517.3 464 512.9 474.7 531.1 474.7 531.1 464 517.3 464"></polygon><polygon class="st8" points="475.4 464 475.4 474.7 501.9 474.7 506.3 464 475.4 464"></polygon><polygon class="st3" points="519.1 432.8 514 445.2 525.1 445.2 530.1 432.8 519.1 432.8"></polygon><polygon class="st6" points="496.8 487 507.8 487 520.7 455.8 509.6 455.8 496.8 487"></polygon><polygon class="st6" points="475.4 455.8 489.2 455.8 493.6 445.2 475.4 445.2 475.4 455.8"></polygon><polygon class="st3" points="504.6 445.2 500.2 455.8 531.1 455.8 531.1 445.2 504.6 445.2"></polygon></g></svg>